<svg xmlns="http://www.w3.org/2000/svg" viewBox="0 0 95.7 34.1" enable-background="new 0 0 95.7 34.1"><style type="text/css">.st0{fill:#3CD2F0;} .st1{fill:#189E7D;} .st2{fill:#0AC775;} .st3{fill:#A6ED5F;}</style><path id="intuit_2_" d="M37.6 6.6c.4 0 .7-.3.7-.7s-.3-.7-.7-.7c-.4 0-.7.3-.7.7s.3.7.7.7zm-4 .5c-.7 0-1.2.4-1.4.9v-.8h-1.1v4.5h1.1V9.2c0-.6.3-1.2 1-1.2s.8.7.8 1.2v2.5h1.1V8.9c.1-.9-.4-1.8-1.5-1.8zm-4.8 4.6H30V7.2h-1.1v4.5zm20.4-5.1c.4 0 .7-.3.7-.7s-.3-.7-.7-.7c-.4 0-.7.3-.7.7s.3.7.7.7zm-1.8.6v1h1.3v3.5h1.1V8.2H51v-1h-3.6zm-1.9 4.5h1.1V7.2h-1.1v4.5zm-9.7-3.5h1.3v3.5h1.1V8.2h1.3v-1h-3.6v1zm7.4 1.5c0 .6-.3 1.2-1 1.2s-.8-.7-.8-1.2V7.2h-1.1V10c0 .9.5 1.8 1.7 1.8.7 0 1.2-.4 1.4-.9v.7h1.1V7.2h-1.1v2.5z"/><path d="M49.8 14.9c-2.3 0-4.3.7-5.6 2.9-1-1.9-2.9-2.9-5.2-2.9-1.9 0-4.3 1-5.2 2.7v-2.1h-4.5v17.7h4.9V22.8c0-1.9 1.2-3.5 3.3-3.5s3.1 1.4 3.1 3.3V33h4.7V22.8c0-1.9 1.2-3.5 3.3-3.5s3.1 1.4 3.1 3.3V33h4.7V21.6c-.2-4.8-3.3-6.7-6.6-6.7zM59.2 15.6h4.9v17.7h-4.9zM76.9 14.9c-1.9 0-4 .7-5 2.7v-2.1h-4.7v17.7h4.9v-10c0-2.1 1.2-3.7 3.3-3.7 2.3 0 3.3 1.6 3.3 3.5v10.3h4.9V22.2c-.3-4.2-2.2-7.3-6.7-7.3zM95.7 19.8v-4.3h-3.5v-5.2h-4.3v2.6c0 1.6-.7 2.7-2.7 2.7h-.9v4.3h3.1V28c0 3.5 2.1 5.4 5.6 5.4 1.4 0 2.3-.2 2.7-.4v-3.8c-.2 0-1 .2-1.6.2-1.4 0-2.1-.5-2.1-2.1V20l3.7-.2z"/><path class="st0" d="M12.2 22.9l11.1-7.3c-.5-1.4-1.4-2.9-2.1-4.3L12.3 17l-.1 5.9z"/><path class="st1" d="M12.2 28.5l12.2-8.1c-.2-1.6-.5-3.3-1.2-4.9l-11.1 7.3.1 5.7z"/><path class="st2" d="M21.1 11.3C17.9 5.9 13.2 1 12.3 0v17.1l8.8-5.8zM12.2 28.5v5.6c7.3-5 12.2-7 12.2-13.2v-.7l-12.2 8.3z"/><path class="st3" d="M12.3 0C10.7 1.6 0 12.9 0 21.4c0 6 4.9 7.6 12.2 12.6l.1-34z"/></svg>